# xmcd
#
# Track frame offsets:
#	183
#	22458
#	38283
#	57458
#	75708
#	92508
#	105383
#	121383
#	140158
#	161213
#	183123
#	203218
#	221098
#
# Disc length: 3133 seconds
#
# Revision: 0
# Processed by: cddbd v1.5.1PL0 Copyright (c) Steve Scherf et al.
# Submitted via: dBpowerAMP V4.0
#
DISCID=b60c3b0d
DTITLE=Chitãozinho and Xororó - Personalidade
DYEAR=1993
DGENRE=Sertanejo
TTITLE0=Evidências
TTITLE1=Gente humilde
TTITLE2=No rancho fundo
TTITLE3=Brincar de ser feliz
TTITLE4=Deixa
TTITLE5=Ave Maria
TTITLE6=Guadalupe
TTITLE7=Nuvem de lágrimas
TTITLE8=Tô deixando você
TTITLE9=Somos assim
TTITLE10=Página virada
TTITLE11=Foi por amor
TTITLE12=Nascemos para cantar
EXTD=
EXTT0=
EXTT1=
EXTT2=
EXTT3=
EXTT4=
EXTT5=
EXTT6=
EXTT7=
EXTT8=
EXTT9=
EXTT10=
EXTT11=
EXTT12=
PLAYORDER=
